STARTFONT 2.1
FONT Thai
SIZE 20 72 72
FONTBOUNDINGBOX 12 20 0 0
STARTPROPERTIES 1
BITCOUNT 1
ENDPROPERTIES
CHARS 88
STARTCHAR  0E01
ENCODING  3585
SWIDTH  1000 0
DWIDTH  12 0
BBX  10 11 1 0
BITMAP
1F00
3F80
61C0
78C0
78C0
20C0
60C0
60C0
60C0
60C0
60C0
ENDCHAR
STARTCHAR  0E02
ENCODING  3586
SWIDTH  1000 0
DWIDTH  12 0
BBX  11 12 0 0
BITMAP
0000
3C60
7E60
4E60
7E60
0660
0C60
0C60
0C60
0C60
1FE0
1FE0
ENDCHAR
STARTCHAR  0E03
ENCODING  3587
SWIDTH  1000 0
DWIDTH  13 0
BBX  12 12 0 0
BITMAP
0000
3E30
7F30
7330
4B30
4E30
3630
0630
0630
0630
1FF0
1FF0
ENDCHAR
STARTCHAR  0E04
ENCODING  3588
SWIDTH  1000 0
DWIDTH  12 0
BBX  10 12 1 -1
BITMAP
1F00
7F80
6180
C0C0
CEC0
D2C0
DEC0
70C0
60C0
60C0
60C0
0000
ENDCHAR
STARTCHAR  0E05
ENCODING  3589
SWIDTH  1000 0
DWIDTH  12 0
BBX  10 12 1 0
BITMAP
0000
3700
7F80
E1C0
C0C0
CEC0
D2C0
DEC0
70C0
60C0
60C0
60C0
ENDCHAR
STARTCHAR  0E06
ENCODING  3590
SWIDTH  1000 0
DWIDTH  13 0
BBX  12 13 0 -1
BITMAP
0000
3E30
7B30
7330
4B30
4F30
3630
0630
0630
1FB0
16F0
1C30
0000
ENDCHAR
STARTCHAR  0E07
ENCODING  3591
SWIDTH  1000 0
DWIDTH  10 0
BBX  8 12 0 0
BITMAP
00
0E
0B
0F
03
43
63
23
33
33
1F
0E
ENDCHAR
STARTCHAR  0E08
ENCODING  3592
SWIDTH  1000 0
DWIDTH  11 0
BBX  9 11 0 0
BITMAP
7E00
FF00
8180
0180
1980
2D80
2F80
1F80
0380
0380
0180
ENDCHAR
STARTCHAR  0E09
ENCODING  3593
SWIDTH  1000 0
DWIDTH  12 0
BBX  12 12 0 -1
BITMAP
1F80
3FC0
00E0
0060
3060
5860
5860
7860
1BF0
1E90
18E0
0000
ENDCHAR
STARTCHAR  0E0A
ENCODING  3594
SWIDTH  1000 0
DWIDTH  13 0
BBX  12 13 0 0
BITMAP
0030
0030
3C60
7EC0
4E60
7E60
0660
0C60
0C60
0C60
0C60
1FE0
1FE0
ENDCHAR
STARTCHAR  0E0B
ENCODING  3595
SWIDTH  1000 0
DWIDTH  14 0
BBX  13 13 0 0
BITMAP
0018
0018
3F10
6FA0
71B0
49B0
4B30
3630
0630
0630
0630
1FF0
1FF0
ENDCHAR
STARTCHAR  0E0C
ENCODING  3596
SWIDTH  1000 0
DWIDTH  17 0
BBX  14 12 2 -1
BITMAP
3E0C
7F0C
E38C
C18C
F18C
618C
C18C
C18C
FFEC
CDBC
7F8C
0000
ENDCHAR
STARTCHAR  0E0D
ENCODING  3597
SWIDTH  1000 0
DWIDTH  17 0
BBX  15 17 1 -5
BITMAP
0000
3E0C
7F0C
638C
C18C
F18C
618C
618C
C18C
F98C
49FC
79FC
0000
01C4
014C
00F0
0000
ENDCHAR
STARTCHAR  0E0E
ENCODING  3598
SWIDTH  1000 0
DWIDTH  12 0
BBX  11 16 0 -5
BITMAP
0F80
1FC0
30E0
3C60
0C60
0860
1860
1860
7860
5860
7060
0160
0F60
0BE0
0EE0
0000
ENDCHAR
STARTCHAR  0E0F
ENCODING  3599
SWIDTH  1000 0
DWIDTH  12 0
BBX  11 16 0 -5
BITMAP
0F80
1FC0
30E0
3C60
0C60
0860
1860
1860
7860
5860
7260
0260
1A60
27E0
1BE0
0000
ENDCHAR
STARTCHAR  0E10
ENCODING  3600
SWIDTH  1000 0
DWIDTH  11 0
BBX  11 17 0 -5
BITMAP
0000
1FC0
3F80
2000
7F00
4180
00C0
3CC0
26C0
3BC0
01C0
00C0
0080
7CC0
4F40
76C0
0000
ENDCHAR
STARTCHAR  0E11
ENCODING  3601
SWIDTH  1000 0
DWIDTH  16 0
BBX  15 12 0 -1
BITMAP
161C
7F3E
7326
4B66
4B46
36C6
0686
0686
0786
0706
0706
0000
ENDCHAR
STARTCHAR  0E12
ENCODING  3602
SWIDTH  1000 0
DWIDTH  17 0
BBX  15 13 1 -1
BITMAP
0000
3F06
6F86
E186
C0C6
DCC6
D2C6
DEC6
4CC6
6FF6
7ADE
6386
0000
ENDCHAR
STARTCHAR  0E13
ENCODING  3603
SWIDTH  1000 0
DWIDTH  17 0
BBX  16 12 1 -1
BITMAP
3E18
7F18
6398
C198
F198
6198
6198
C198
F9BE
49DA
798E
0000
ENDCHAR
STARTCHAR  0E14
ENCODING  3604
SWIDTH  1000 0
DWIDTH  12 0
BBX  10 12 1 -1
BITMAP
1F00
7F80
6180
C0C0
CCC0
D2C0
DEC0
4EC0
6CC0
78C0
70C0
0000
ENDCHAR
STARTCHAR  0E15
ENCODING  3605
SWIDTH  1000 0
DWIDTH  12 0
BBX  10 13 1 -1
BITMAP
0000
3300
7F80
E180
C0C0
CCC0
D2C0
DEC0
4EC0
6CC0
78C0
70C0
0000
ENDCHAR
STARTCHAR  0E16
ENCODING  3606
SWIDTH  1000 0
DWIDTH  12 0
BBX  9 12 1 -1
BITMAP
3E00
7F00
6180
C180
F180
6180
6180
C180
F980
4980
7980
0000
ENDCHAR
STARTCHAR  0E17
ENCODING  3607
SWIDTH  1000 0
DWIDTH  14 0
BBX  13 12 0 -1
BITMAP
7070
58F8
7898
1998
1918
1B18
1B18
1A18
1E18
1C18
1C18
0000
ENDCHAR
STARTCHAR  0E18
ENCODING  3608
SWIDTH  1000 0
DWIDTH  11 0
BBX  10 12 0 0
BITMAP
0000
3F80
7F80
4000
FF00
F300
3180
3180
3180
3180
7F80
7F80
ENDCHAR
STARTCHAR  0E19
ENCODING  3609
SWIDTH  1000 0
DWIDTH  12 0
BBX  12 13 0 -1
BITMAP
0000
7060
5860
7860
1860
1860
1860
1860
18E0
1BF0
1E90
1CE0
0000
ENDCHAR
STARTCHAR  0E1A
ENCODING  3610
SWIDTH  1000 0
DWIDTH  13 0
BBX  11 12 0 0
BITMAP
0000
7060
5860
7860
1860
1860
1860
1860
1860
1860
3FE0
3FE0
ENDCHAR
STARTCHAR  0E1B
ENCODING  3611
SWIDTH  1000 0
DWIDTH  13 0
BBX  11 17 0 0
BITMAP
0000
0060
0060
0060
0060
0060
7060
5860
7860
1860
1860
1860
1860
1860
1860
3FE0
3FE0
ENDCHAR
STARTCHAR  0E1C
ENCODING  3612
SWIDTH  1000 0
DWIDTH  13 0
BBX  11 12 1 0
BITMAP
0000
38C0
48C0
78C0
40C0
44C0
4CC0
4EC0
53C0
71C0
61C0
40C0
ENDCHAR
STARTCHAR  0E1D
ENCODING  3613
SWIDTH  1000 0
DWIDTH  13 0
BBX  11 17 1 0
BITMAP
0000
00C0
00C0
00C0
00C0
00C0
38C0
48C0
78C0
40C0
44C0
4CC0
4EC0
53C0
71C0
61C0
40C0
ENDCHAR
STARTCHAR  0E1E
ENCODING  3614
SWIDTH  1000 0
DWIDTH  14 0
BBX  13 12 0 0
BITMAP
0000
7898
5898
7D98
1D58
1F58
1E58
1E78
1E38
1C38
1C38
1C38
ENDCHAR
STARTCHAR  0E1F
ENCODING  3615
SWIDTH  1000 0
DWIDTH  14 0
BBX  13 17 0 0
BITMAP
0000
0018
0018
0018
0018
0018
7898
5898
7998
1D58
1F58
1E58
1E78
1E38
1C38
1C38
1C38
ENDCHAR
STARTCHAR  0E20
ENCODING  3616
SWIDTH  1000 0
DWIDTH  12 0
BBX  11 12 0 -1
BITMAP
0F80
1FC0
30E0
3C60
0C60
0860
1860
1860
7860
5860
7060
0000
ENDCHAR
STARTCHAR  0E21
ENCODING  3617
SWIDTH  1000 0
DWIDTH  12 0
BBX  11 13 0 -1
BITMAP
0000
7060
5860
7860
1860
1860
1860
1860
3C60
7F60
59E0
70E0
0000
ENDCHAR
STARTCHAR  0E22
ENCODING  3618
SWIDTH  1000 0
DWIDTH  12 0
BBX  8 12 2 0
BITMAP
00
73
D3
F3
C3
C3
C3
63
C3
C3
FF
FF
ENDCHAR
STARTCHAR  0E23
ENCODING  3619
SWIDTH  1000 0
DWIDTH  9 0
BBX  9 13 0 -1
BITMAP
0000
3F00
7F00
C000
FC00
0E00
0600
0600
0600
3E00
2600
3C00
0000
ENDCHAR
STARTCHAR  0E24
ENCODING  3620
SWIDTH  1000 0
DWIDTH  11 0
BBX  9 14 1 -3
BITMAP
3E00
7F00
6380
C180
F180
6180
6180
C180
F980
4980
7980
0180
0180
0000
ENDCHAR
STARTCHAR  0E25
ENCODING  3621
SWIDTH  1000 0
DWIDTH  12 0
BBX  10 12 1 -1
BITMAP
3F00
7F80
01C0
30C0
7CC0
CCC0
C6C0
C2C0
F1C0
D1C0
70C0
0000
ENDCHAR
STARTCHAR  0E26
ENCODING  3622
SWIDTH  1000 0
DWIDTH  12 0
BBX  11 14 0 -3
BITMAP
0F80
1FC0
30E0
3C60
0C60
0860
1860
1860
7860
5860
7060
0060
0060
0000
ENDCHAR
STARTCHAR  0E27
ENCODING  3623
SWIDTH  1000 0
DWIDTH  10 0
BBX  8 12 0 -1
BITMAP
7C
FE
83
03
03
03
03
03
0F
0B
0E
00
ENDCHAR
STARTCHAR  0E28
ENCODING  3624
SWIDTH  1000 0
DWIDTH  12 0
BBX  11 13 1 0
BITMAP
0000
0040
1FC0
7F80
6380
C0C0
CEC0
D2C0
DEC0
70C0
60C0
60C0
60C0
ENDCHAR
STARTCHAR  0E29
ENCODING  3625
SWIDTH  1000 0
DWIDTH  15 0
BBX  15 12 0 0
BITMAP
0000
7030
5830
7934
1AB4
1ABC
1BB8
19F0
1830
1830
3FF0
3FF0
ENDCHAR
STARTCHAR  0E2A
ENCODING  3626
SWIDTH  1000 0
DWIDTH  12 0
BBX  11 14 1 -1
BITMAP
0000
0040
3FC0
7F80
0780
30C0
7CC0
CCC0
C6C0
C2C0
F1C0
D1C0
70C0
0000
ENDCHAR
STARTCHAR  0E2B
ENCODING  3627
SWIDTH  1000 0
DWIDTH  13 0
BBX  12 12 0 0
BITMAP
0000
70E0
5890
78F0
18E0
18B0
1930
1B30
1E30
1C30
1C30
1830
ENDCHAR
STARTCHAR  0E2C
ENCODING  3628
SWIDTH  1000 0
DWIDTH  14 0
BBX  15 17 0 -1
BITMAP
0000
00F2
009C
00F8
0018
7898
5898
7998
1DD8
1E58
1E58
1E78
1E38
1C38
1C38
1C38
0000
ENDCHAR
STARTCHAR  0E2D
ENCODING  3629
SWIDTH  1000 0
DWIDTH  12 0
BBX  10 11 1 0
BITMAP
3F00
7F80
41C0
00C0
30C0
68C0
68C0
78C0
60C0
7FC0
7FC0
ENDCHAR
STARTCHAR  0E2E
ENCODING  3630
SWIDTH  1000 0
DWIDTH  12 0
BBX  11 13 1 0
BITMAP
0000
0040
3FC0
4380
43C0
3EC0
30C0
68C0
68C0
78C0
60C0
7FC0
7FC0
ENDCHAR
STARTCHAR  0E2F
ENCODING  3631
SWIDTH  1000 0
DWIDTH  11 0
BBX  9 11 0 0
BITMAP
3180
4980
7B80
3D80
0180
0180
0180
0180
0180
0180
0180
ENDCHAR
STARTCHAR  0E30
ENCODING  3632
SWIDTH  1000 0
DWIDTH  9 0
BBX  9 12 0 0
BITMAP
0000
7980
4900
7300
3E00
0000
0000
3180
4980
4900
7300
3C00
ENDCHAR
STARTCHAR  0E31
ENCODING  3633
SWIDTH  1000 0
DWIDTH  0 0
BBX  9 4 -7 12
BITMAP
6000
9100
F200
7C00
ENDCHAR
STARTCHAR  0E32
ENCODING  3634
SWIDTH  1000 0
DWIDTH  10 0
BBX  8 12 0 -1
BITMAP
7C
FE
83
03
03
03
03
03
03
03
03
00
ENDCHAR
STARTCHAR  0E33
ENCODING  3635
SWIDTH  1000 0
DWIDTH  10 0
BBX  12 16 -4 -1
BITMAP
4000
A000
E000
0000
07C0
0FE0
0830
0030
0030
0030
0030
0030
0030
0030
0030
0000
ENDCHAR
STARTCHAR  0E34
ENCODING  3636
SWIDTH  1000 0
DWIDTH  0 0
BBX  9 5 -11 11
BITMAP
0000
1E00
6100
7F00
0000
ENDCHAR
STARTCHAR  0E35
ENCODING  3637
SWIDTH  1000 0
DWIDTH  0 0
BBX  8 6 -10 11
BITMAP
00
01
3D
43
FF
00
ENDCHAR
STARTCHAR  0E36
ENCODING  3638
SWIDTH  1000 0
DWIDTH  0 0
BBX  9 5 -11 11
BITMAP
0180
3E80
6300
7F00
0000
ENDCHAR
STARTCHAR  0E37
ENCODING  3639
SWIDTH  1000 0
DWIDTH  0 0
BBX  9 5 -11 11
BITMAP
0500
3D00
6300
7F00
0000
ENDCHAR
STARTCHAR  0E38
ENCODING  3640
SWIDTH  1000 0
DWIDTH  0 0
BBX  2 4 -4 -5
BITMAP
C0
C0
C0
40
ENDCHAR
STARTCHAR  0E39
ENCODING  3641
SWIDTH  1000 0
DWIDTH  0 0
BBX  6 5 -7 -6
BITMAP
C8
C8
C8
78
00
ENDCHAR
STARTCHAR  0E3A
ENCODING  3642
SWIDTH  1000 0
DWIDTH  0 0
BBX  2 2 -3 -4
BITMAP
C0
C0
ENDCHAR
STARTCHAR  0E3F
ENCODING  3647
SWIDTH  1000 0
DWIDTH  12 0
BBX  10 17 1 -1
BITMAP
0800
FC00
FF00
CB80
C980
C980
C980
FF00
FF00
C980
C8C0
C8C0
C8C0
C9C0
FF80
FE00
0800
ENDCHAR
STARTCHAR  0E40
ENCODING  3648
SWIDTH  1000 0
DWIDTH  7 0
BBX  5 12 2 -1
BITMAP
C0
C0
C0
C0
C0
C0
C0
C0
F0
D0
70
00
ENDCHAR
STARTCHAR  0E41
ENCODING  3649
SWIDTH  1000 0
DWIDTH  12 0
BBX  10 12 2 -1
BITMAP
C600
C600
C600
C600
C600
C600
C600
C600
F7C0
D640
73C0
0000
ENDCHAR
STARTCHAR  0E42
ENCODING  3650
SWIDTH  1000 0
DWIDTH  10 0
BBX  9 18 0 -1
BITMAP
0000
3F00
7F00
C000
F800
0C00
0C00
0C00
0C00
0C00
0C00
0C00
0C00
0C00
0F80
0C80
0780
0000
ENDCHAR
STARTCHAR  0E43
ENCODING  3651
SWIDTH  1000 0
DWIDTH  9 0
BBX  9 18 0 -1
BITMAP
0000
3C00
7600
4E00
4E00
3600
0C00
0C00
0C00
0C00
0C00
0C00
0C00
0C00
0F00
0D00
0700
0000
ENDCHAR
STARTCHAR  0E44
ENCODING  3652
SWIDTH  1000 0
DWIDTH  10 0
BBX  10 17 0 -1
BITMAP
CC00
DE00
5600
5600
7600
2600
0600
0600
0600
0600
0600
0600
0600
0780
0680
0380
0000
ENDCHAR
STARTCHAR  0E45
ENCODING  3653
SWIDTH  1000 0
DWIDTH  10 0
BBX  8 14 0 -3
BITMAP
7C
FE
83
03
03
03
03
03
03
03
03
03
03
03
ENDCHAR
STARTCHAR  0E46
ENCODING  3654
SWIDTH  1000 0
DWIDTH  10 0
BBX  9 15 0 -3
BITMAP
0000
3F00
7D80
7180
4980
4980
3180
0180
0180
0180
0180
0180
0180
0180
0180
ENDCHAR
STARTCHAR  0E47
ENCODING  3655
SWIDTH  1000 0
DWIDTH  0 0
BBX  9 6 -9 12
BITMAP
0100
0300
3E00
4000
5B00
3700
ENDCHAR
STARTCHAR  0E48
ENCODING  3656
SWIDTH  1000 0
DWIDTH  0 0
BBX  2 5 -4 11
BITMAP
00
40
40
40
00
ENDCHAR
STARTCHAR  0E49
ENCODING  3657
SWIDTH  1000 0
DWIDTH  0 0
BBX  6 4 -7 11
BITMAP
C8
D8
60
00
ENDCHAR
STARTCHAR  0E4A
ENCODING  3658
SWIDTH  1000 0
DWIDTH  0 0
BBX  7 4 -7 12
BITMAP
00
7A
CA
CC
ENDCHAR
STARTCHAR  0E4B
ENCODING  3659
SWIDTH  1000 0
DWIDTH  0 0
BBX  5 5 -5 11
BITMAP
00
20
70
20
00
ENDCHAR
STARTCHAR  0E4C
ENCODING  3660
SWIDTH  1000 0
DWIDTH  0 0
BBX  5 4 -5 12
BITMAP
08
F0
A0
E0
ENDCHAR
STARTCHAR  0E4D
ENCODING  3661
SWIDTH  1000 0
DWIDTH  0 0
BBX  3 3 -4 12
BITMAP
40
A0
E0
ENDCHAR
STARTCHAR  0E4E
ENCODING  3662
SWIDTH  1000 0
DWIDTH  0 0
BBX  6 6 -6 14
BITMAP
78
40
30
40
40
38
ENDCHAR
STARTCHAR  0E4F
ENCODING  3663
SWIDTH  1000 0
DWIDTH  12 0
BBX  10 10 1 0
BITMAP
0800
3F00
6180
C0C0
CCC0
CCC0
C0C0
6180
7F00
1E00
ENDCHAR
STARTCHAR  0E50
ENCODING  3664
SWIDTH  1000 0
DWIDTH  12 0
BBX  10 9 1 0
BITMAP
1E00
7F80
E180
C0C0
C0C0
C0C0
E180
7F80
1E00
ENDCHAR
STARTCHAR  0E51
ENCODING  3665
SWIDTH  1000 0
DWIDTH  13 0
BBX  11 9 1 0
BITMAP
1F00
3F80
60C0
CE60
CA60
CA60
E660
7CC0
38C0
ENDCHAR
STARTCHAR  0E52
ENCODING  3666
SWIDTH  1000 0
DWIDTH  14 0
BBX  11 12 2 0
BITMAP
0000
C000
C000
CFC0
DFE0
DC60
D260
D260
CC60
C060
FFC0
FF80
ENDCHAR
STARTCHAR  0E53
ENCODING  3667
SWIDTH  1000 0
DWIDTH  14 0
BBX  12 10 1 -1
BITMAP
39C0
7FE0
C630
C630
C630
C030
F830
4860
7860
0000
ENDCHAR
STARTCHAR  0E54
ENCODING  3668
SWIDTH  1000 0
DWIDTH  15 0
BBX  14 13 1 0
BITMAP
0000
0018
0018
0030
1FF0
7F80
60C0
C1A0
C120
C1C0
60C0
7FF0
1F30
ENDCHAR
STARTCHAR  0E55
ENCODING  3669
SWIDTH  1000 0
DWIDTH  15 0
BBX  14 13 1 0
BITMAP
0018
0318
0498
04B0
1FE0
7800
60C0
C1A0
C120
C1C0
60C0
7FF0
1F30
ENDCHAR
STARTCHAR  0E56
ENCODING  3670
SWIDTH  1000 0
DWIDTH  13 0
BBX  13 13 -1 0
BITMAP
0000
3000
3000
1800
1FC0
0FE0
0030
0618
0D18
0D18
0E30
07F0
03C0
ENDCHAR
STARTCHAR  0E57
ENCODING  3671
SWIDTH  1000 0
DWIDTH  15 0
BBX  13 13 1 -1
BITMAP
0000
0018
0018
3398
7F98
CCD8
CCD8
C0D8
C0D8
F8D8
49F0
79F0
0000
ENDCHAR
STARTCHAR  0E58
ENCODING  3672
SWIDTH  1000 0
DWIDTH  15 0
BBX  14 13 1 0
BITMAP
0000
0018
0038
0030
1FE0
7F00
E070
C058
C058
C738
6D98
7CF8
1C70
ENDCHAR
STARTCHAR  0E59
ENCODING  3673
SWIDTH  1000 0
DWIDTH  14 0
BBX  13 12 1 -1
BITMAP
0018
0018
3998
7F90
C670
C620
C200
C300
FB00
4900
7980
0000
ENDCHAR
STARTCHAR  0E5A
ENCODING  3674
SWIDTH  1000 0
DWIDTH  14 0
BBX  13 11 0 0
BITMAP
3198
4998
7B98
3D98
0198
0198
0198
0198
0198
0198
0198
ENDCHAR
STARTCHAR  0E5B
ENCODING  3675
SWIDTH  1000 0
DWIDTH  21 0
BBX  20 10 1 0
BITMAP
000000
3F0000
610000
400000
400000
C00000
40DA20
60EE60
3F81C0
1F0000
ENDCHAR
STARTCHAR  25CC
ENCODING  9676
SWIDTH  1000 0
DWIDTH  12 0
BBX  10 10 1 1
BITMAP
0800
1200
4080
8040
0000
8040
8040
0000
4080
1A00
ENDCHAR
ENDFONT
